static_grf.mot
version=1
nRows=10
nColumns 19
inDegrees=yes
endheader
time	1_ground_force_vx	1_ground_force_vy	1_ground_force_vz	1_ground_force_px	1_ground_force_py	1_ground_force_pz	1_ground_torque_x	1_ground_torque_y	1_ground_torque_z	2_ground_force_vx	2_ground_force_vy	2_ground_force_vz	2_ground_force_px	2_ground_force_py	2_ground_force_pz	2_ground_torque_x	2_ground_torque_y	2_ground_torque_z
            0.005000	           -1.969503	          325.612134	          -10.888749	           -0.274061	            0.006324	           -0.430676	           -0.013489	            2.230038	           -0.074574	           -0.567482	          314.482710	           13.651822	           -0.286406	            0.005336	           -0.665767	            0.003544	           -1.963880	           -0.085253
            0.005500	           -1.969405	          325.071367	          -10.891068	           -0.274016	            0.006325	           -0.430737	           -0.013338	            2.201633	           -0.073763	           -0.521359	          314.667522	           13.511674	           -0.285961	            0.005335	           -0.665210	            0.003214	           -1.940047	           -0.083305
            0.006000	           -1.694185	          325.431559	          -10.798493	           -0.274223	            0.006325	           -0.430813	           -0.011610	            2.230182	           -0.074002	           -0.520070	          314.299515	           13.416504	           -0.286449	            0.005334	           -0.665430	            0.003165	           -1.912514	           -0.081639
            0.006500	           -1.786210	          324.170634	          -11.032956	           -0.274153	            0.006327	           -0.431357	           -0.012496	            2.267818	           -0.077184	           -0.707367	          314.298001	           13.651224	           -0.286383	            0.005334	           -0.665367	            0.004324	           -1.921264	           -0.083448
            0.007000	           -1.603020	          325.792894	          -10.980598	           -0.273984	            0.006323	           -0.430411	           -0.011169	            2.269934	           -0.076506	           -0.757520	          315.218429	           13.701457	           -0.286404	            0.005335	           -0.665619	            0.004627	           -1.925535	           -0.083696
            0.007500	           -1.694218	          325.611794	          -10.797720	           -0.273966	            0.006324	           -0.430716	           -0.011781	            2.264178	           -0.075083	           -0.756293	          314.850985	           13.465503	           -0.286413	            0.005335	           -0.665661	            0.004595	           -1.912931	           -0.081812
            0.008000	           -1.969243	          325.431506	          -10.797810	           -0.274202	            0.006324	           -0.430588	           -0.013427	            2.218955	           -0.073625	           -0.801067	          314.297663	           13.651264	           -0.286742	            0.005334	           -0.665723	            0.004916	           -1.928778	           -0.083775
            0.008500	           -1.831876	          325.071394	          -10.891409	           -0.273881	            0.006327	           -0.431197	           -0.012529	            2.223338	           -0.074492	           -0.797806	          313.377462	           13.507194	           -0.286429	            0.005333	           -0.665050	            0.004785	           -1.879648	           -0.081017
            0.009000	           -1.968883	          324.710050	          -10.709190	           -0.274183	            0.006325	           -0.430907	           -0.013259	            2.186637	           -0.072117	           -0.611673	          313.745918	           13.649213	           -0.286598	            0.005332	           -0.665012	            0.003745	           -1.921005	           -0.083571
            0.009500	           -1.923594	          325.251611	          -10.890409	           -0.273870	            0.006324	           -0.430639	           -0.013114	            2.217326	           -0.074243	           -0.710690	          315.218766	           13.654509	           -0.286283	            0.005337	           -0.665858	            0.004371	           -1.938709	           -0.083980
